<svg viewBox="0 0 300 102" fill="none" xmlns="http://www.w3.org/2000/svg">
<path d="M40.192 61.44H34.176V50.24H32V45.312H34.304C34.944 42.272 37.92 40 43.2 40H44.48V44.288H42.24C40.576 44.288 39.776 44.448 39.808 45.312H44.48V50.24H40.192V61.44Z" fill="white"/>
<path d="M52.1047 43.84H46.0887V40H52.1047V43.84ZM52.1047 61.44H46.0887V45.312H52.1047V61.44Z" fill="white"/>
<path d="M60.3622 61.44H54.3462V45.312H59.9783V50.208H60.2983C60.6502 47.52 62.4103 44.992 66.7303 44.992C71.0823 44.992 73.1302 47.616 73.1302 51.104V61.44H67.1143V53.312C67.1143 51.072 66.2822 50.368 63.6582 50.368C61.0022 50.368 60.3622 51.04 60.3622 53.12V61.44Z" fill="white"/>
<path d="M80.4447 61.76C76.7967 61.76 74.7487 60.096 74.7487 57.344C74.7487 55.072 76.3167 53.44 79.9647 53.088L86.5247 52.448V52.128C86.5247 50.496 85.8208 50.24 83.6768 50.24C81.6927 50.24 81.0848 50.624 81.0848 51.968V52.096H75.0687V52.032C75.0687 47.744 78.6527 44.992 84.1247 44.992C89.7567 44.992 92.4767 47.744 92.4767 52.256V61.44H86.8447V58.048H86.5247C85.9167 60.32 83.9327 61.76 80.4447 61.76ZM80.7967 56.96C80.7967 57.472 81.3087 57.568 82.2367 57.568C85.1487 57.568 86.3327 57.216 86.4927 55.776L81.5648 56.352C81.0208 56.416 80.7967 56.608 80.7967 56.96Z" fill="white"/>
<path d="M100.596 61.44H94.58V45.312H100.212V50.208H100.532C100.884 47.52 102.644 44.992 106.964 44.992C111.316 44.992 113.364 47.616 113.364 51.104V61.44H107.348V53.312C107.348 51.072 106.516 50.368 103.892 50.368C101.236 50.368 100.596 51.04 100.596 53.12V61.44Z" fill="white"/>
<path d="M124.519 61.76C118.79 61.76 115.143 58.592 115.143 53.376C115.143 48.128 118.79 44.992 124.519 44.992C130.022 44.992 133.542 47.808 133.542 52.128V52.64H127.559V52.384C127.559 50.72 126.342 50.368 124.39 50.368C122.182 50.368 121.126 50.848 121.126 53.376C121.126 55.872 122.182 56.352 124.39 56.352C126.342 56.352 127.559 56.032 127.559 54.368V54.08H133.542V54.624C133.542 58.912 130.022 61.76 124.519 61.76Z" fill="white"/>
<path d="M144.462 61.76C138.99 61.76 135.15 59.424 135.15 53.376C135.15 48.128 138.958 44.992 144.334 44.992C149.902 44.992 153.454 47.776 153.454 52.96C153.454 53.504 153.422 53.92 153.358 54.496H140.718C140.814 56.448 141.678 56.992 144.238 56.992C146.67 56.992 147.31 56.576 147.31 55.616V55.264H153.326V55.648C153.326 59.232 149.902 61.76 144.462 61.76ZM144.206 49.6C141.998 49.6 141.07 50.08 140.814 51.456H147.63C147.406 50.08 146.446 49.6 144.206 49.6Z" fill="white"/>
</svg>
